<mxfile host="app.diagrams.net" agent="Mozilla/5.0 (Windows NT 10.0; Win64; x64) AppleWebKit/537.36 (KHTML, like Gecko) Chrome/133.0.0.0 Safari/537.36 Edg/133.0.0.0" version="26.0.16">
  <diagram name="페이지-1" id="6kisBeozC6Pk42h1wYYO">
    <mxGraphModel dx="946" dy="601" grid="1" gridSize="10" guides="1" tooltips="1" connect="1" arrows="1" fold="1" page="1" pageScale="1" pageWidth="827" pageHeight="1169" math="0" shadow="0">
      <root>
        <mxCell id="0" />
        <mxCell id="1" parent="0" />
        <mxCell id="RyTJcyCNHGdK7H3bgm4u-1" value="사용자" style="shape=umlActor;verticalLabelPosition=bottom;verticalAlign=top;html=1;outlineConnect=0;" vertex="1" parent="1">
          <mxGeometry x="40" y="180" width="30" height="60" as="geometry" />
        </mxCell>
        <mxCell id="RyTJcyCNHGdK7H3bgm4u-3" value="" style="whiteSpace=wrap;html=1;aspect=fixed;" vertex="1" parent="1">
          <mxGeometry x="170" y="50" width="550" height="550" as="geometry" />
        </mxCell>
        <mxCell id="RyTJcyCNHGdK7H3bgm4u-4" value="나의 근무 기록 날짜별 조회" style="ellipse;whiteSpace=wrap;html=1;" vertex="1" parent="1">
          <mxGeometry x="190" y="70" width="120" height="80" as="geometry" />
        </mxCell>
        <mxCell id="RyTJcyCNHGdK7H3bgm4u-5" value="나의 근무 내역 다운로드" style="ellipse;whiteSpace=wrap;html=1;" vertex="1" parent="1">
          <mxGeometry x="300" y="190" width="120" height="80" as="geometry" />
        </mxCell>
        <mxCell id="RyTJcyCNHGdK7H3bgm4u-6" value="출근 및 퇴근 (QR)" style="ellipse;whiteSpace=wrap;html=1;" vertex="1" parent="1">
          <mxGeometry x="240" y="300" width="120" height="80" as="geometry" />
        </mxCell>
        <mxCell id="RyTJcyCNHGdK7H3bgm4u-7" value="업무상태 조회 및 변경 가능" style="ellipse;whiteSpace=wrap;html=1;" vertex="1" parent="1">
          <mxGeometry x="220" y="450" width="120" height="80" as="geometry" />
        </mxCell>
        <mxCell id="RyTJcyCNHGdK7H3bgm4u-10" value="" style="endArrow=classic;html=1;rounded=0;entryX=0;entryY=0.5;entryDx=0;entryDy=0;" edge="1" parent="1" target="RyTJcyCNHGdK7H3bgm4u-7">
          <mxGeometry width="50" height="50" relative="1" as="geometry">
            <mxPoint x="57.48" y="210" as="sourcePoint" />
            <mxPoint x="189.99999999999997" y="318" as="targetPoint" />
            <Array as="points">
              <mxPoint x="57.48" y="210" />
            </Array>
          </mxGeometry>
        </mxCell>
        <mxCell id="RyTJcyCNHGdK7H3bgm4u-12" value="" style="endArrow=classic;html=1;rounded=0;entryX=0;entryY=0.5;entryDx=0;entryDy=0;" edge="1" parent="1" target="RyTJcyCNHGdK7H3bgm4u-4">
          <mxGeometry width="50" height="50" relative="1" as="geometry">
            <mxPoint x="50" y="210" as="sourcePoint" />
            <mxPoint x="100" y="160" as="targetPoint" />
          </mxGeometry>
        </mxCell>
        <mxCell id="RyTJcyCNHGdK7H3bgm4u-13" value="" style="endArrow=classic;html=1;rounded=0;entryX=0;entryY=0.5;entryDx=0;entryDy=0;" edge="1" parent="1" target="RyTJcyCNHGdK7H3bgm4u-5">
          <mxGeometry width="50" height="50" relative="1" as="geometry">
            <mxPoint x="50" y="210" as="sourcePoint" />
            <mxPoint x="100" y="160" as="targetPoint" />
            <Array as="points" />
          </mxGeometry>
        </mxCell>
        <mxCell id="RyTJcyCNHGdK7H3bgm4u-14" value="" style="endArrow=classic;html=1;rounded=0;entryX=0.008;entryY=0.35;entryDx=0;entryDy=0;entryPerimeter=0;" edge="1" parent="1" target="RyTJcyCNHGdK7H3bgm4u-6">
          <mxGeometry width="50" height="50" relative="1" as="geometry">
            <mxPoint x="50" y="210" as="sourcePoint" />
            <mxPoint x="100" y="160" as="targetPoint" />
          </mxGeometry>
        </mxCell>
        <mxCell id="RyTJcyCNHGdK7H3bgm4u-15" value="관리자" style="shape=umlActor;verticalLabelPosition=bottom;verticalAlign=top;html=1;outlineConnect=0;" vertex="1" parent="1">
          <mxGeometry x="780" y="210" width="30" height="60" as="geometry" />
        </mxCell>
        <mxCell id="RyTJcyCNHGdK7H3bgm4u-16" value="전직원 근무 기록 날짜별 조회" style="ellipse;whiteSpace=wrap;html=1;" vertex="1" parent="1">
          <mxGeometry x="500" y="80" width="120" height="80" as="geometry" />
        </mxCell>
        <mxCell id="RyTJcyCNHGdK7H3bgm4u-17" value="부서별 근무 내역 다운로드" style="ellipse;whiteSpace=wrap;html=1;" vertex="1" parent="1">
          <mxGeometry x="490" y="270" width="120" height="80" as="geometry" />
        </mxCell>
        <mxCell id="RyTJcyCNHGdK7H3bgm4u-18" value="전직원 출퇴현황 조회" style="ellipse;whiteSpace=wrap;html=1;" vertex="1" parent="1">
          <mxGeometry x="510" y="440" width="120" height="80" as="geometry" />
        </mxCell>
        <mxCell id="RyTJcyCNHGdK7H3bgm4u-21" value="" style="endArrow=classic;html=1;rounded=0;entryX=1;entryY=0.5;entryDx=0;entryDy=0;exitX=0.5;exitY=0.5;exitDx=0;exitDy=0;exitPerimeter=0;" edge="1" parent="1" source="RyTJcyCNHGdK7H3bgm4u-15" target="RyTJcyCNHGdK7H3bgm4u-18">
          <mxGeometry width="50" height="50" relative="1" as="geometry">
            <mxPoint x="660" y="210" as="sourcePoint" />
            <mxPoint x="710" y="160" as="targetPoint" />
          </mxGeometry>
        </mxCell>
        <mxCell id="RyTJcyCNHGdK7H3bgm4u-22" value="" style="endArrow=classic;html=1;rounded=0;entryX=1;entryY=0.5;entryDx=0;entryDy=0;exitX=0.5;exitY=0.5;exitDx=0;exitDy=0;exitPerimeter=0;" edge="1" parent="1" source="RyTJcyCNHGdK7H3bgm4u-15" target="RyTJcyCNHGdK7H3bgm4u-17">
          <mxGeometry width="50" height="50" relative="1" as="geometry">
            <mxPoint x="660" y="210" as="sourcePoint" />
            <mxPoint x="710" y="160" as="targetPoint" />
          </mxGeometry>
        </mxCell>
        <mxCell id="RyTJcyCNHGdK7H3bgm4u-23" value="" style="endArrow=classic;html=1;rounded=0;entryX=1;entryY=0.5;entryDx=0;entryDy=0;exitX=0.5;exitY=0.5;exitDx=0;exitDy=0;exitPerimeter=0;" edge="1" parent="1" source="RyTJcyCNHGdK7H3bgm4u-15" target="RyTJcyCNHGdK7H3bgm4u-16">
          <mxGeometry width="50" height="50" relative="1" as="geometry">
            <mxPoint x="660" y="210" as="sourcePoint" />
            <mxPoint x="710" y="160" as="targetPoint" />
          </mxGeometry>
        </mxCell>
        <mxCell id="RyTJcyCNHGdK7H3bgm4u-24" value="근태관리" style="text;html=1;align=center;verticalAlign=middle;resizable=0;points=[];autosize=1;strokeColor=none;fillColor=none;" vertex="1" parent="1">
          <mxGeometry x="330" y="50" width="70" height="30" as="geometry" />
        </mxCell>
        <mxCell id="RyTJcyCNHGdK7H3bgm4u-30" value="&amp;lt;&amp;lt; incloud &amp;gt;&amp;gt;" style="text;html=1;align=center;verticalAlign=middle;whiteSpace=wrap;rounded=0;" vertex="1" parent="1">
          <mxGeometry x="300" y="100" width="80" height="20" as="geometry" />
        </mxCell>
        <mxCell id="RyTJcyCNHGdK7H3bgm4u-32" value="&amp;lt;&amp;lt; incloud &amp;gt;&amp;gt;" style="text;html=1;align=center;verticalAlign=middle;whiteSpace=wrap;rounded=0;" vertex="1" parent="1">
          <mxGeometry x="560" y="160" width="80" height="20" as="geometry" />
        </mxCell>
        <mxCell id="RyTJcyCNHGdK7H3bgm4u-41" value="" style="endArrow=block;dashed=1;endFill=0;endSize=12;html=1;rounded=0;exitX=0.8;exitY=0.838;exitDx=0;exitDy=0;exitPerimeter=0;entryX=0.696;entryY=0.094;entryDx=0;entryDy=0;entryPerimeter=0;" edge="1" parent="1" source="RyTJcyCNHGdK7H3bgm4u-6" target="RyTJcyCNHGdK7H3bgm4u-7">
          <mxGeometry width="160" relative="1" as="geometry">
            <mxPoint x="500" y="389.99647058823524" as="sourcePoint" />
            <mxPoint x="310" y="378.82" as="targetPoint" />
          </mxGeometry>
        </mxCell>
        <mxCell id="RyTJcyCNHGdK7H3bgm4u-42" value="" style="endArrow=block;dashed=1;endFill=0;endSize=12;html=1;rounded=0;exitX=0.588;exitY=1.1;exitDx=0;exitDy=0;exitPerimeter=0;entryX=0.742;entryY=0.131;entryDx=0;entryDy=0;entryPerimeter=0;" edge="1" parent="1" source="RyTJcyCNHGdK7H3bgm4u-32" target="RyTJcyCNHGdK7H3bgm4u-17">
          <mxGeometry width="160" relative="1" as="geometry">
            <mxPoint x="560" y="180" as="sourcePoint" />
            <mxPoint x="518" y="231" as="targetPoint" />
          </mxGeometry>
        </mxCell>
        <mxCell id="RyTJcyCNHGdK7H3bgm4u-43" value="" style="endArrow=block;dashed=1;endFill=0;endSize=12;html=1;rounded=0;exitX=0.5;exitY=1;exitDx=0;exitDy=0;entryX=0.5;entryY=0;entryDx=0;entryDy=0;" edge="1" parent="1" source="RyTJcyCNHGdK7H3bgm4u-30" target="RyTJcyCNHGdK7H3bgm4u-5">
          <mxGeometry width="160" relative="1" as="geometry">
            <mxPoint x="400" y="119" as="sourcePoint" />
            <mxPoint x="358" y="170" as="targetPoint" />
          </mxGeometry>
        </mxCell>
        <mxCell id="RyTJcyCNHGdK7H3bgm4u-44" value="&amp;lt;&amp;lt; extend &amp;gt;&amp;gt;" style="text;html=1;align=center;verticalAlign=middle;whiteSpace=wrap;rounded=0;" vertex="1" parent="1">
          <mxGeometry x="334" y="370" width="80" height="20" as="geometry" />
        </mxCell>
      </root>
    </mxGraphModel>
  </diagram>
</mxfile>
